<?xml version="1.0" encoding="UTF-8" standalone="no"?>
<svg
   xmlns:dc="http://purl.org/dc/elements/1.1/"
   xmlns:cc="http://creativecommons.org/ns#"
   xmlns:rdf="http://www.w3.org/1999/02/22-rdf-syntax-ns#"
   xmlns:svg="http://www.w3.org/2000/svg"
   xmlns="http://www.w3.org/2000/svg"
   xmlns:sodipodi="http://sodipodi.sourceforge.net/DTD/sodipodi-0.dtd"
   xmlns:inkscape="http://www.inkscape.org/namespaces/inkscape"
   width="7.8639183in"
   height="3.332916in"
   viewBox="0 0 755.03072 319.99995"
   id="svg2"
   version="1.1"
   inkscape:version="0.91 r13725"
   sodipodi:docname="pcb5.svg">
  <metadata
     id="metadata9">
    <rdf:RDF>
      <cc:Work
         rdf:about="">
        <dc:format>image/svg+xml</dc:format>
        <dc:type
           rdf:resource="http://purl.org/dc/dcmitype/StillImage" />
        <dc:title></dc:title>
      </cc:Work>
    </rdf:RDF>
  </metadata>
  <defs
     id="defs7" />
  <sodipodi:namedview
     pagecolor="#ffffff"
     bordercolor="#666666"
     borderopacity="1"
     objecttolerance="10"
     gridtolerance="10"
     guidetolerance="10"
     inkscape:pageopacity="0"
     inkscape:pageshadow="2"
     inkscape:window-width="1366"
     inkscape:window-height="744"
     id="namedview5"
     showgrid="false"
     fit-margin-top="0"
     fit-margin-left="0"
     fit-margin-right="0"
     fit-margin-bottom="0"
     inkscape:zoom="0.95281662"
     inkscape:cx="463.59887"
     inkscape:cy="153.05623"
     inkscape:window-x="0"
     inkscape:window-y="24"
     inkscape:window-maximized="1"
     inkscape:current-layer="svg2" />
  <path
     d="m 729,-3.2556161e-5 c 0,0 0,320.000012556161 0,320.000012556161 0,0 -729,0 -729,0 0,0 0,-320.000012556161 0,-320.000012556161 0,0 729,0 729,0 z"
     id="選択範囲"
     inkscape:connector-curvature="0"
     style="fill:#2980b9;fill-opacity:1;stroke:none;stroke-width:1" />
  <path
     d="m 495.70528,292.90596 c -8.57,3.36 -16.11,-8.59 -5.92,-14.52 12.31,-2.71 13.76,11.44 5.92,14.52 z m -384.98,-246.000008 c -8.97,3.41 -18.109995,-9.84 -5.96,-16.52 12.82,-2.79 15.65,12.84 5.96,16.52 z"
     id="選択範囲 #24"
     inkscape:connector-curvature="0"
     style="fill:none;stroke:#000000;stroke-width:1" />
  <path
     d="m 724.04884,283.57676 c 0,0 0,28 0,28 0,0 -55,0 -55,0 0,0 0,-28 0,-28 0,0 55,0 55,0 z m -653.999998,-172 c 0,0 0,26 0,26 0,0 -57.999999,0 -57.999999,0 0,0 0,-26 0,-26 0,0 57.999999,0 57.999999,0 z m 0,-37.499999 c 0,0 0,26.499989 0,26.499989 0,0 -56.999999,0 -56.999999,0 0,0 0,-26.499989 0,-26.499989 0,0 56.999999,0 56.999999,0 z"
     id="選択範囲 #11"
     inkscape:connector-curvature="0"
     style="fill:#2c3e50;fill-opacity:1;stroke:none;stroke-width:1" />
  <path
     d="m 571.12449,15.243452 c 9.04,9.040001 6.1,26.840001 -8.79,30.260001 -16.57,3.81 -28.24,-15.08 -18.35,-28.430001 2.83,-3.82 5.96,-5.2 10.35,-6.51 6.19,-0.9899996 12.17,0.07 16.79,4.68 z m 4,262.000018 c 9.04,9.04 6.1,26.84 -8.79,30.26 -16.57,3.81 -28.24,-15.08 -18.35,-28.43 2.83,-3.82 5.96,-5.2 10.35,-6.51 6.19,-0.99 12.17,0.07 16.79,4.68 z m -533.999998,-1 c 9.04,9.04 6.1,26.84 -8.79,30.26 -16.57,3.81 -28.2400006,-15.08 -18.35,-28.43 2.83,-3.82 5.96,-5.2 10.35,-6.51 6.19,-0.99 12.17,0.07 16.79,4.68 z m 1,-260.000018 c 9.04,9.040001 6.1,26.840001 -8.79,30.260001 -16.57,3.81 -28.2400005,-15.08 -18.35,-28.43 2.83,-3.820001 5.96,-5.200001 10.35,-6.510001 6.19,-0.99 12.17,0.07 16.79,4.68 z"
     id="選択範囲 #22"
     inkscape:connector-curvature="0"
     style="fill:#ffffe0;fill-opacity:1;stroke:#f4d03f;stroke-width:5.90687323;stroke-miterlimit:4;stroke-dasharray:none;stroke-opacity:1" />
  <path
     id="選択範囲 #26"
     d="m 56.204553,84.838344 c 0,0 0,6 0,6 0,0 -6,0 -6,0 0,0 0,-6 0,-6 0,0 6,0 6,0 z m 0,37.000006 c 0,0 0,6 0,6 0,0 -6,0 -6,0 0,0 0,-6 0,-6 0,0 6,0 6,0 z m 656.999997,173 c 0,0 0,6 0,6 0,0 -6,0 -6,0 0,0 0,-6 0,-6 0,0 6,0 6,0 z m -30,0 c 0,0 0,6 0,6 0,0 -6,0 -6,0 0,0 0,-6 0,-6 0,0 6,0 6,0 z m -655.999997,-173 c 0,0 0,6 0,6 0,0 -6,0 -6,0 0,0 0,-6 0,-6 0,0 6,0 6,0 z m -1,-38.000006 c 0,0 0,6 0,6 0,0 -6,0 -6,0 0,0 0,-6 0,-6 0,0 6,0 6,0 z"
     inkscape:connector-curvature="0"
     style="fill:#f7de79;fill-opacity:1;stroke:none;stroke-width:1" />
  <path
     d="m 645.0151,283.71045 c 0,0 0,13 0,13 0,0 -21,0 -21,0 0,0 0,-13 0,-13 0,0 21,0 21,0 z m -3,-19 c 0,0 0,13 0,13 0,0 -18,0 -18,0 0,0 0,-13 0,-13 0,0 18,0 18,0 z m 33,-31 c 0,0 0,15 0,15 0,0 -17,0 -17,0 0,0 0,-15 0,-15 0,0 17,0 17,0 z m -34,-59 c 0,0 0,21 0,21 0,0 -14,0 -14,0 0,0 0,-21 0,-21 0,0 14,0 14,0 z m -34,-19 c 0,0 0,16 0,16 0,0 -24,0 -24,0 0,0 0,-16 0,-16 0,0 24,0 24,0 z m -28,35 c 0,0 0,33 0,33 0,0 -33,0 -33,0 0,0 0,-33 0,-33 0,0 33,0 33,0 z m -1,-95.000006 c 0,0 0,33.000006 0,33.000006 0,0 -35,0 -35,0 0,0 0,-33.000006 0,-33.000006 0,0 35,0 35,0 z m 105,-60.000001 c 0,0 0,64.999997 0,64.999997 0,0 -64,0 -64,0 0,0 0,-64.999997 0,-64.999997 0,0 64,0 64,0 z M 49.015105,176.71045 c 0,0 0,11 0,11 0,0 -19,0 -19,0 0,0 0,-11 0,-11 0,0 19,0 19,0 z"
     id="選択範囲 #18"
     inkscape:connector-curvature="0"
     style="fill:#2c3e50;fill-opacity:1;stroke:none;stroke-width:1" />
  <path
     d="m 509.24873,17.112757 c 0,0 0,284.000003 0,284.000003 0,0 -434.999999,0 -434.999999,0 0,0 0,-284.000003 0,-284.000003 0,0 434.999999,0 434.999999,0 z"
     id="選択範囲 #1"
     inkscape:connector-curvature="0"
     style="fill:#3498db;fill-opacity:1;stroke:none;stroke-width:1" />
  <path
     d="m 206.40781,265.66062 c 0,0 0,30 0,30 0,0 -114.999991,0 -114.999991,0 0,0 0,-30 0,-30 0,0 114.999991,0 114.999991,0 z"
     id="選択範囲 #9"
     inkscape:connector-curvature="0"
     style="fill:#f4f4f4;fill-opacity:1;stroke:none;stroke-width:1" />
  <path
     d="m 59.555333,227.07451 c 0,0 0,22 0,22 0,0 -35.999999,0 -35.999999,0 0,0 0,-22 0,-22 0,0 35.999999,0 35.999999,0 z"
     id="選択範囲 #8"
     inkscape:connector-curvature="0"
     style="fill:#c3c3c3;fill-opacity:1;stroke:none;stroke-width:1" />
  <path
     d="m 755.03078,170.20692 c 0,0 0,76 0,76 0,0 -50,0 -50,0 0,0 0,-76 0,-76 0,0 50,0 50,0 z m 0,-139.000007 c 0,0 0,75.999997 0,75.999997 0,0 -50,0 -50,0 0,0 0,-75.999997 0,-75.999997 0,0 50,0 50,0 z"
     id="選択範囲 #4"
     inkscape:connector-curvature="0"
     style="fill:#c3c3c3;fill-opacity:1;stroke:none;stroke-width:1" />
  <path
     d="m 42.570614,243.19036 c -5.54,2 -11.53,-5.68 -3.78,-10.44 9.05,-1.3 9.28,8.45 3.78,10.44 z"
     id="選択範囲 #3"
     inkscape:connector-curvature="0"
     style="fill:#efe4b0;fill-opacity:1;stroke:none;stroke-width:1;stroke-opacity:1" />
  <path
     d="m 503.1732,27.15807 c 0,0 0,216.00001 0,216.00001 0,0 -343,0 -343,0 0,0 0,-216.00001 0,-216.00001 0,0 343,0 343,0 z"
     id="選択範囲 #2"
     inkscape:connector-curvature="0"
     style="fill:#c3c3c3;fill-opacity:1;stroke:none;stroke-width:1" />
</svg>
